<svg xmlns="http://www.w3.org/2000/svg" width="53.878" height="53.879" viewBox="0 0 53.878 53.879">
  <path id="Shape_184_" d="M49.552,14.894a1.8,1.8,0,0,0-2.54,0l-1.9,1.9a1.8,1.8,0,0,0-2-.365V8.082a4.5,4.5,0,0,0-4.49-4.49H35.928V.9a.9.9,0,1,0-1.8,0V3.592H26.948V.9a.9.9,0,0,0-1.8,0V3.592H17.968V.9a.9.9,0,0,0-1.8,0V3.592H8.988V.9a.9.9,0,0,0-1.8,0V3.592H4.5a4.5,4.5,0,0,0-4.49,4.49V49.389a4.5,4.5,0,0,0,4.49,4.49H38.622a4.5,4.5,0,0,0,4.49-4.49V32.763l5.346-5.346a1.749,1.749,0,0,0,1.728-.459l1.27-1.271a1.8,1.8,0,0,0,0-2.54l1.9-1.9a1.8,1.8,0,0,0,0-2.54ZM1.8,8.082A2.694,2.694,0,0,1,4.5,5.388H7.192V6.451a2.694,2.694,0,1,0,1.8,0V5.388h7.184V6.451a2.694,2.694,0,1,0,1.8,0V5.388h7.184V6.451a2.694,2.694,0,1,0,1.8,0V5.388h7.184V6.451a2.694,2.694,0,1,0,1.8,0V5.388h2.694a2.694,2.694,0,0,1,2.694,2.694V13.47a.9.9,0,1,0,0,1.8V18.05l-.019.018a1.789,1.789,0,0,0-.525,1.272,1.768,1.768,0,0,0,.066.458l-2.874,2.874L15.357,19.14A2.671,2.671,0,0,0,12.3,21.273,43.33,43.33,0,0,1,1.8,42.778V15.266a.9.9,0,1,0,0-1.8Zm6.286,0a.9.9,0,1,1-.9.9.9.9,0,0,1,.9-.9Zm8.98,0a.9.9,0,1,1-.9.9A.9.9,0,0,1,17.07,8.082Zm8.98,0a.9.9,0,1,1-.9.9A.9.9,0,0,1,26.05,8.082Zm8.98,0a.9.9,0,1,1-.9.9A.9.9,0,0,1,35.03,8.082Zm-2.473,20L5.03,41.836a46.032,46.032,0,0,0,9.036-20.224.882.882,0,0,1,1.014-.7l21.315,3.331Zm8.759,21.31a2.694,2.694,0,0,1-2.694,2.694H4.5A2.694,2.694,0,0,1,1.8,49.389V45.454l26.74-13.362-4.391,4.391a.912.912,0,0,0-.2.305L20.587,45.32a1.8,1.8,0,0,0,2.335,2.35L31.469,44.3a.914.914,0,0,0,.305-.2l9.542-9.538ZM29.533,43.133l-3.5,1.377-2.29-2.29,1.379-3.5Zm-6.51.908,1.185,1.185L22.252,46ZM41.585,31.754l-.005,0L31.137,42.2l-1.9-1.9L39.392,30.134a.9.9,0,0,0-1.27-1.27L27.963,39.023l-1.9-1.9L41.933,21.243l1.9,1.905-3.175,3.174a.9.9,0,1,0,1.271,1.271l3.174-3.175,1.905,1.9Zm7.336-6.066-6.35-6.35.269-.269.024-.025.979-.978.635.635,5.08,5.08.635.635Zm1.27-3.809-3.81-3.81,1.9-1.9,3.809,3.809Z" transform="translate(-0.008)" fill="#61ddfe"/>
</svg>
