<svg xmlns="http://www.w3.org/2000/svg" width="43.008" height="56.111" viewBox="0 0 43.008 56.111">
  <path id="Shape_4_" d="M61.351,43.038,61.375,43c.428.362,1.287.96,3.007,2.159a3.649,3.649,0,0,0,1.006.5v.167a3.741,3.741,0,0,0,3.741,3.741h1.483l5.718,5.711a2.783,2.783,0,0,0,1.992.835H100.5a2.324,2.324,0,0,0,1.777-3.787l-.012-.015c-.049-.057-.388-.468-.859-1.029l-1.7-2.036a.635.635,0,0,1-.117-.622,25.157,25.157,0,0,0,1.338-8.41A24.473,24.473,0,0,0,100.5,35.5a33.2,33.2,0,0,1-.513-6.506,14.507,14.507,0,0,1,.965-5.138,9.352,9.352,0,0,0,.513-1.87,3.733,3.733,0,0,0-6.157-3.311V3.741A3.74,3.74,0,0,0,91.57,0H69.129a3.741,3.741,0,0,0-3.741,3.741V17.869a3.661,3.661,0,0,0-2.829,4.27,3.745,3.745,0,0,0,1.209,2.143,3.707,3.707,0,0,0-1.532,1.248,3.766,3.766,0,0,0,.619,4.919,3.7,3.7,0,0,0-1.526,1.244,3.768,3.768,0,0,0,.621,4.922,3.728,3.728,0,0,0-.6,6.424v0Zm5.908,2.787V45.74a3.68,3.68,0,0,0,1.68-6.427,3.618,3.618,0,0,0,1.536-1.227,3.68,3.68,0,0,0-.616-4.934,3.67,3.67,0,0,0,.9-6.169,3.524,3.524,0,0,0,2.171-3.009L87.7,34.5A2.806,2.806,0,0,0,92,33.092c.4-1.231.917-2.806,1.442-4.412V45.824a1.87,1.87,0,0,1-1.87,1.87H69.129A1.871,1.871,0,0,1,67.258,45.824ZM95.982,20.913a1.87,1.87,0,0,1,3.632.831,8.32,8.32,0,0,1-.426,1.5,16.334,16.334,0,0,0-1.068,5.746,35.253,35.253,0,0,0,.54,6.818,22.643,22.643,0,0,1,.4,4.4A23.327,23.327,0,0,1,97.822,48a2.489,2.489,0,0,0,.444,2.445l1.7,2.035c.573.687.782.935.869,1.04a.455.455,0,0,1-.337.721H78.322a.914.914,0,0,1-.655-.281l-4.408-4.394H91.573a3.741,3.741,0,0,0,3.741-3.741V22.953c.35-1.069.6-1.836.668-2.04ZM69.129,1.87H91.573a1.87,1.87,0,0,1,1.87,1.87V22.654c-.887,2.712-2.329,7.123-3.22,9.851a.917.917,0,0,1-.592.594.935.935,0,0,1-.842-.128l-17.408-12.4-.008-.007-3.044-2.12a3.731,3.731,0,0,0-1.072-.509V3.741A1.87,1.87,0,0,1,69.129,1.87ZM64.677,20.437a1.849,1.849,0,0,1,1.2-.773,1.826,1.826,0,0,1,1.379.312L70.3,22.094a1.853,1.853,0,1,1-2.117,3.041s-2.743-1.91-3.007-2.1A.554.554,0,0,0,65.131,23a1.912,1.912,0,0,1-.456-2.566ZM63.768,26.6a1.871,1.871,0,0,1,1.526-.79,1.836,1.836,0,0,1,1.05.328L69.4,28.274A1.848,1.848,0,0,1,67.276,31.3L64.23,29.178a1.926,1.926,0,0,1-.462-2.576Zm-.907,6.164a1.87,1.87,0,0,1,1.53-.793,1.836,1.836,0,0,1,1.05.328l3.051,2.134a1.842,1.842,0,0,1,.452,2.575,1.88,1.88,0,0,1-2.576.454L65.6,36.93l-.019-.011-2.263-1.578a1.925,1.925,0,0,1-.46-2.576h0Zm-.912,6.172a1.87,1.87,0,0,1,2.564-.48l.779.544h0l2.283,1.6a1.84,1.84,0,0,1,.456,2.571,1.884,1.884,0,0,1-2.579.452s-2.732-1.9-2.993-2.1a.556.556,0,0,0-.045-.033,1.92,1.92,0,0,1-.468-2.565Z" transform="translate(-59.783)" fill="#61ddfe"/>
</svg>
