<svg xmlns="http://www.w3.org/2000/svg" width="42.965" height="53.724" viewBox="0 0 42.965 53.724">
  <path id="Shape_54_" d="M94.264,20.716a5.378,5.378,0,0,0-5.372-5.372H86.936a2.654,2.654,0,0,0,.165-.9,2.686,2.686,0,0,0-2.686-2.686H84.3c-.627-2.75-4.17-4.691-9.421-5.222a3.582,3.582,0,1,0-6,0c-5.255.531-8.795,2.472-9.425,5.222h-.113a2.686,2.686,0,0,0-2.686,2.686,2.654,2.654,0,0,0,.165.9H53.076a1.791,1.791,0,0,0-1.31,3.009l8.2,8.826,2.049,12.3L58.753,52.516a1.791,1.791,0,0,0,1.738,2.225H83.268a1.791,1.791,0,0,0,1.738-2.225L81.748,39.483l2.976-17.871H88V32.8a3.134,3.134,0,1,0,6.268,0ZM71.879,2.808A1.791,1.791,0,1,1,70.089,4.6a1.791,1.791,0,0,1,1.791-1.791Zm0,5.372c6.1,0,9.683,1.686,10.539,3.582H61.341C62.2,9.866,65.776,8.18,71.879,8.18Zm-18.8,8.954H58.29l1.143,6.84Zm13.5,35.816H60.491l3.134-12.536h3.929Zm-2.89-14.327L61.693,26.673a.511.511,0,0,0-.007-.052L60.1,17.134h6.626l1.048,21.49ZM68.37,52.95l.98-12.536h5.059l.98,12.536Zm.151-35.816h6.716l-1.05,21.49H69.572ZM83.268,52.95H77.185l-.98-12.536h3.929ZM80.075,38.624H75.98l1.049-21.49h6.626Zm4.34-23.28H59.344a.9.9,0,1,1,0-1.791H84.415a.9.9,0,1,1,0,1.791ZM92.474,32.8a1.343,1.343,0,1,1-2.686,0V21.611A1.791,1.791,0,0,0,88,19.82H85.022l.448-2.686h3.422a3.582,3.582,0,0,1,3.582,3.582V32.8Z" transform="translate(-51.273 -1.001)" fill="#61ddfe"/>
</svg>
