<svg xmlns="http://www.w3.org/2000/svg" width="286.013" height="202.928" viewBox="0 0 286.013 202.928">
  <path id="line" d="M281.1,81.719c-1.652.1-1.987-.156-1.8-1.329.036-.168-.12-.287-.371-.287-.742,0-.431-.85.742-2.047a15.14,15.14,0,0,1,5.626-3.508c2.466-.934,2.646-.946,3.651-.192.431.323.634.611.443.623s-.108.323.168.658C290.915,77.277,285.049,81.5,281.1,81.719Zm-13.372.946a21.649,21.649,0,0,0-4.5,1.724,17.793,17.793,0,0,0-3.759,2.095.871.871,0,0,1-.778.407c-.814,0-7.1,3-7.29,3.484a.6.6,0,0,1-.563.335,31.818,31.818,0,0,0-4.118,1.76c-3.184,1.52-4.633,2.179-9.17,4.19-.467.2-2.526,1.149-4.573,2.095s-3.855,1.748-4.022,1.784-1.556.622-3.089,1.317c-4.788,2.179-14.521,5.866-15.443,5.854a22.27,22.27,0,0,1-2.466-.275c-1.7-.287-5.854.9-5.854,1.664,0,.251-.108.323-.263.191a6.764,6.764,0,0,0-2.646.826c-1.317.575-3.077,1.341-3.891,1.7s-2.646,1.185-4.094,1.868a18.775,18.775,0,0,1-3.017,1.233,3.429,3.429,0,0,0-1.377.838c-.551.491-1.1.766-1.269.646a6.727,6.727,0,0,0-2.6.91c-1.257.623-3.436,1.556-4.836,2.083s-5.567,2.31-9.206,3.951c-9.385,4.226-20.016,8.679-23.391,9.8-1.58.527-2.849,1.125-2.849,1.353s-.144.323-.359.191a19.928,19.928,0,0,0-4.573.982,50.336,50.336,0,0,1-6.955,1.46,56.56,56.56,0,0,0-11.253,1.987c-8.057,2.107-19.357,6.536-36.5,14.341-12.151,5.531-29.233,14.126-35.662,17.956-1.413.85-5.159,2.993-8.392,4.812a46.785,46.785,0,0,0-5.83,3.591c0,.156-.682.539-1.484.826a7.758,7.758,0,0,0-2.047,1.042,9.535,9.535,0,0,1-1.377.994c-.467.275-.778.694-.718.958a.349.349,0,0,1-.323.467c-.634,0-.515.886.251,1.736a1.877,1.877,0,0,0,2.023.515,3.907,3.907,0,0,0,1.544-.551,6.411,6.411,0,0,1,1.484-.934c.706-.359,4.417-2.322,8.284-4.381,14.305-7.637,16.616-8.835,28.228-14.6,17.406-8.643,36.32-17.131,45.849-20.542a69.386,69.386,0,0,1,15.2-3.927c6.931-1.006,20.375-5.662,32.262-11.193,1.437-.67,3.783-1.7,5.172-2.286s4-1.724,5.734-2.526,4-1.808,4.992-2.227a4.711,4.711,0,0,0,1.808-1.077c0-.18.563-.455,1.245-.6a20.477,20.477,0,0,0,3.4-1.317,20.411,20.411,0,0,1,2.358-1.042c.215,0,3.352-1.413,9.038-4.07a42.283,42.283,0,0,1,4.31-1.867,26.682,26.682,0,0,0,3.232-1.317c2.67-1.209,3.029-1.281,4.477-.8a9.9,9.9,0,0,0,6.488-.611c.718-.323,2.765-1.077,4.5-1.652,4.525-1.532,5.95-2.071,11.887-4.537,2.933-1.221,6.357-2.6,7.638-3.077a14.343,14.343,0,0,0,2.55-1.125,2.009,2.009,0,0,1,.85-.4c1.113-.239,8.535-3.448,13.372-5.782,6.069-2.933,9.8-4.681,11.72-5.459a8.269,8.269,0,0,0,2.358-1.52A2.527,2.527,0,0,0,267.727,82.664Z" transform="translate(45.004 -78.476) rotate(22)" fill="#ff7d44"/>
</svg>
